<?xml version="1.0" standalone="no"?>
<!DOCTYPE svg PUBLIC "-//W3C//DTD SVG 20010904//EN"
 "http://www.w3.org/TR/2001/REC-SVG-20010904/DTD/svg10.dtd">
<svg version="1.0" xmlns="http://www.w3.org/2000/svg"
 width="512.000000pt" height="128.000000pt" viewBox="0 0 512.000000 128.000000"
 preserveAspectRatio="xMidYMid meet">

<g transform="translate(0.000000,128.000000) scale(0.100000,-0.100000)" stroke="none">
<path d="M774 1269 c-76 -39 -49 -169 35 -169 62 0 101 37 101 95 0 56 -83
101 -136 74z"/>
<path d="M0 765 l0 -485 80 0 80 0 2 208 3 207 193 3 192 2 0 65 0 65 -195 0
-196 0 3 143 3 142 233 3 232 2 0 65 0 65 -315 0 -315 0 0 -485z"/>
<path d="M1780 765 l0 -485 75 0 75 0 0 203 c0 219 6 260 41 312 62 91 212
105 282 27 40 -44 46 -88 47 -319 l0 -223 76 0 76 0 -4 253 c-5 282 -12 317
-73 380 -58 59 -117 82 -215 81 -95 0 -136 -14 -193 -64 l-37 -32 0 176 0 176
-75 0 -75 0 0 -485z"/>
<path d="M2868 1120 l-45 -50 -98 0 c-93 0 -97 -1 -126 -29 l-29 -29 0 -330 0
-330 26 -31 26 -31 442 0 c482 0 471 -1 495 58 8 20 11 120 9 351 l-3 323 -28
24 c-26 22 -37 24 -127 24 l-98 0 -45 50 -45 50 -154 0 -155 0 -45 -50z m354
-90 l43 -50 103 0 102 0 -2 -297 -3 -298 -395 0 -395 0 -3 298 -2 297 102 0
103 0 43 50 43 50 109 0 109 0 43 -50z"/>
<path d="M2989 914 c-54 -16 -116 -72 -144 -129 -28 -57 -26 -157 3 -211 104
-199 396 -169 459 46 37 128 -40 262 -173 299 -51 14 -88 13 -145 -5z m160
-111 c68 -52 88 -125 50 -192 -24 -43 -84 -81 -129 -81 -72 0 -150 78 -150
150 0 111 142 187 229 123z"/>
<path d="M1217 986 c-108 -29 -180 -113 -180 -210 0 -126 69 -171 308 -201
122 -15 158 -40 153 -101 -4 -46 -46 -79 -113 -90 -94 -14 -175 21 -208 89
l-19 37 -70 0 -71 0 6 -41 c17 -125 161 -207 347 -196 214 11 333 152 259 304
-35 72 -110 105 -277 124 -106 12 -149 25 -162 49 -16 30 -12 64 11 89 67 72
236 51 276 -34 17 -35 17 -35 86 -35 l70 0 -6 40 c-18 137 -226 225 -410 176z"/>
<path d="M4649 984 c-101 -31 -192 -121 -221 -217 -7 -23 -12 -82 -12 -132 0
-117 27 -189 96 -258 82 -81 186 -113 321 -96 120 15 227 95 261 195 l15 44
-80 0 c-62 0 -79 -3 -79 -14 0 -21 -48 -74 -82 -92 -37 -19 -135 -20 -179 -1
-64 27 -103 80 -115 156 l-7 41 277 0 276 0 0 43 c0 157 -94 291 -234 332 -62
19 -176 18 -237 -1z m217 -123 c48 -22 83 -66 91 -116 l6 -35 -192 0 c-213 0
-208 -2 -172 68 35 68 91 101 171 101 33 0 72 -7 96 -18z"/>
<path d="M740 635 l0 -355 75 0 75 0 0 355 0 355 -75 0 -75 0 0 -355z"/>
<path d="M3674 973 c3 -10 66 -171 140 -358 l133 -339 -27 -61 c-32 -72 -53
-85 -142 -85 l-68 0 0 -65 0 -65 103 0 c136 1 172 16 209 91 23 46 358 883
358 895 0 2 -35 4 -77 4 l-78 0 -95 -270 c-52 -148 -97 -270 -101 -270 -3 0
-49 122 -103 270 l-99 270 -79 0 c-71 0 -79 -2 -74 -17z"/>
</g>
</svg>
